<svg viewBox="0 0 81 30" xmlns="http://www.w3.org/2000/svg" data-logo="logo">
            <g transform="translate(0, 15) rotate(0)" id="logogram" style="opacity: 1;"></g>
            <g transform="translate(0, 1)" id="logotype" style="opacity: 1;"><path d="M2.94 23.58L2.94 23.58L2.92 23.86Q2.92 24.28 3.25 24.59Q3.57 24.90 3.85 24.90L3.85 24.90Q5.90 24.90 7.48 24.28Q9.06 23.67 9.06 23.05L9.06 23.05Q9.06 22.76 8.49 22.55Q7.91 22.33 6.55 22.02Q5.20 21.70 4.58 21.52Q3.96 21.34 3.61 21.19Q3.25 21.04 2.87 20.76L2.87 20.76Q2.07 20.20 2.07 19.08Q2.07 17.96 2.90 16.86Q3.73 15.75 4.97 14.97Q6.22 14.18 7.66 13.58L7.66 13.58Q10.49 12.41 12.42 12.41L12.42 12.41Q14.32 12.41 14.77 13.23L14.77 13.23Q14.90 13.52 14.90 13.88L14.90 13.88L14.90 13.99Q14.90 14.90 14.52 15.41Q14.13 15.93 13.30 16.34Q12.48 16.75 11.99 16.75Q11.50 16.75 11.37 16.68Q11.25 16.61 11.16 16.50Q11.07 16.39 10.95 16.34Q10.82 16.28 10.82 16.08Q10.82 15.87 10.99 15.66Q11.16 15.45 11.23 15.21L11.23 15.21Q10.10 15.26 8.87 15.73Q7.64 16.20 6.76 16.78Q5.88 17.36 5.30 17.89Q4.72 18.42 4.72 18.67Q4.72 18.92 5.50 19.07L5.50 19.07Q9.04 19.77 10.15 20.28Q11.26 20.80 11.69 21.45Q12.12 22.10 12.12 22.63L12.12 22.63Q12.12 23.72 11.25 24.69Q10.37 25.67 9.09 26.28L9.09 26.28Q6.34 27.63 4.30 27.63Q2.26 27.63 1.48 27.01Q0.70 26.38 0.70 25.53Q0.70 24.68 1.14 23.95Q1.57 23.22 2.26 23.22Q2.94 23.22 2.94 23.58ZM28.97 21.96L28.97 21.96Q29.09 22.74 29.09 23.20Q29.09 23.65 28.92 23.98Q28.76 24.32 28.21 24.92Q27.65 25.53 26.88 26.15L26.88 26.15Q25.00 27.63 23.04 27.63L23.04 27.63Q20.22 27.63 20.22 25.14L20.22 25.14Q20.22 22.97 23.99 16.49L23.99 16.49Q24.13 16.25 24.18 16.15L24.18 16.15Q22.87 17.07 19.15 21.18Q15.43 25.29 14.20 27L14.20 27Q14.10 27.15 13.69 27.34Q13.28 27.53 13.05 27.53Q12.82 27.53 12.55 27.38Q12.29 27.24 12.22 27.24L12.22 27.24Q12.00 27.24 12.00 27.09Q12.00 26.95 12.60 25.52Q13.21 24.09 14.20 21.98L14.20 21.98Q16.92 16.13 22.29 6.77L22.29 6.77Q24.17 3.48 25.22 2.12L25.22 2.12Q25.98 1.14 27.75 1.14L27.75 1.14Q28.13 1.14 28.18 1.37Q28.23 1.59 28.23 1.84Q28.23 2.10 28.13 2.36L28.13 2.36L26.30 5.21Q20.87 13.69 18.12 19.26L18.12 19.26Q20.78 16.01 23.29 14.25L23.29 14.25Q24.85 13.14 25.63 13.14Q26.40 13.14 27.04 13.39Q27.67 13.64 27.67 14.58L27.67 14.58Q27.67 14.92 26.56 17.10L26.56 17.10Q23.23 23.67 23.23 24.39Q23.23 25.12 23.82 25.12L23.82 25.12Q24.69 25.12 26.51 23.43L26.51 23.43Q27.87 22.15 28.23 21.79L28.23 21.79Q28.44 21.63 28.61 21.63L28.61 21.63Q28.93 21.63 28.97 21.96ZM42.16 21.63L42.16 21.63Q42.49 21.63 42.55 22.13Q42.62 22.63 42.62 23.15Q42.62 23.68 42.52 23.89L42.52 23.89Q42.02 24.85 40.35 26.22Q38.67 27.60 37.17 27.60L37.17 27.60Q36.25 27.60 35.46 27.04Q34.68 26.49 34.68 25.10Q34.68 23.72 35.41 22.39L35.41 22.39Q31.17 27.70 28.76 27.70L28.76 27.70Q27.81 27.70 27.22 27.02Q26.63 26.33 26.63 25.61Q26.63 24.88 26.83 24.10Q27.04 23.33 27.27 22.71Q27.50 22.10 27.95 21.19Q28.40 20.28 28.63 19.87Q28.85 19.46 29.33 18.63Q29.82 17.81 30.62 16.40Q31.41 15.00 31.93 14.33Q32.45 13.65 32.95 13.64Q33.44 13.64 33.82 14.05Q34.20 14.46 34.20 14.71Q34.20 14.97 33.05 17.02L33.05 17.02Q29.67 23.14 29.67 24.15L29.67 24.15Q29.67 24.40 29.86 24.40L29.86 24.40Q30.68 24.40 33.94 20.85Q37.20 17.29 37.72 16.29Q38.23 15.29 38.72 14.61Q39.20 13.93 39.44 13.77L39.44 13.77Q40.18 13.29 41.34 13.26L41.34 13.26Q41.53 13.26 41.63 13.28Q41.73 13.29 41.87 13.57Q42.01 13.84 42.01 13.99L42.01 13.99Q41.85 14.47 40.65 16.54Q39.44 18.61 39.31 18.88L39.31 18.88Q37.29 23.05 37.29 24.32L37.29 24.32Q37.29 25.03 37.84 25.03L37.84 25.03Q38.83 24.90 40.23 23.45L40.23 23.45Q40.74 22.92 41.25 22.37Q41.75 21.82 41.87 21.73Q41.99 21.63 42.16 21.63ZM52.48 5.09L53.29 4.99L53.99 5.16Q54.14 5.16 54.26 5.31Q54.38 5.47 54.38 5.60Q54.38 5.74 54.02 6.34Q53.66 6.94 53.18 7.70Q52.69 8.46 52.65 8.53L52.65 8.53Q53.99 8.42 54.54 8.42Q55.10 8.42 55.30 8.50Q55.51 8.58 55.77 8.93Q56.04 9.28 56.26 9.46Q56.48 9.64 56.48 10.00Q56.48 10.35 56.05 10.60Q55.61 10.85 55.11 10.90L55.11 10.90Q51.15 11.29 50.74 11.31L50.74 11.31Q49.36 13.43 46.87 17.92Q44.38 22.40 44.23 23.53L44.23 23.53Q44.16 24.04 44.16 24.37L44.16 24.37Q44.16 25.03 44.86 25.03Q45.56 25.03 46.42 24.50Q47.27 23.96 47.99 23.33L47.99 23.33Q49.90 21.62 50.04 21.62L50.04 21.62Q50.48 21.62 50.48 23.15L50.48 23.15Q50.48 23.99 49.71 24.66L49.71 24.66Q47.99 26.15 46.81 26.90Q45.63 27.65 44.45 27.65L44.45 27.65Q44.19 27.65 43.97 27.60L43.97 27.60Q42.60 27.34 41.96 26.60Q41.32 25.85 41.33 24.59Q41.34 23.33 42.08 21.52Q42.83 19.72 43.96 17.69L43.96 17.69Q45.80 14.37 47.65 11.47L47.65 11.47L47.00 11.55Q45.01 11.77 44.69 11.77L44.69 11.77L44.54 11.77Q44.04 11.77 43.58 11.58Q43.12 11.38 43.12 11.09Q43.12 10.80 43.37 10.53Q43.61 10.25 43.66 10.10L43.66 10.10Q43.78 9.72 44.56 9.26Q45.34 8.80 45.73 8.77Q46.13 8.75 46.49 8.73Q46.86 8.71 47.31 8.70Q47.77 8.68 48.01 8.66L48.01 8.66L49.54 8.59Q50.98 6.44 51.52 5.83Q52.06 5.21 52.14 5.15Q52.23 5.09 52.48 5.09L52.48 5.09ZM60.00 5.09L60.81 4.99L61.51 5.16Q61.66 5.16 61.78 5.31Q61.90 5.47 61.90 5.60Q61.90 5.74 61.54 6.34Q61.18 6.94 60.69 7.70Q60.21 8.46 60.17 8.53L60.17 8.53Q61.51 8.42 62.06 8.42Q62.62 8.42 62.82 8.50Q63.03 8.58 63.29 8.93Q63.56 9.28 63.78 9.46Q64.00 9.64 64.00 10.00Q64.00 10.35 63.57 10.60Q63.13 10.85 62.63 10.90L62.63 10.90Q58.67 11.29 58.26 11.31L58.26 11.31Q56.88 13.43 54.39 17.92Q51.90 22.40 51.75 23.53L51.75 23.53Q51.68 24.04 51.68 24.37L51.68 24.37Q51.68 25.03 52.38 25.03Q53.08 25.03 53.94 24.50Q54.79 23.96 55.51 23.33L55.51 23.33Q57.42 21.62 57.56 21.62L57.56 21.62Q58.00 21.62 58.00 23.15L58.00 23.15Q58.00 23.99 57.23 24.66L57.23 24.66Q55.51 26.15 54.33 26.90Q53.15 27.65 51.97 27.65L51.97 27.65Q51.71 27.65 51.49 27.60L51.49 27.60Q50.12 27.34 49.48 26.60Q48.84 25.85 48.85 24.59Q48.86 23.33 49.60 21.52Q50.35 19.72 51.47 17.69L51.47 17.69Q53.32 14.37 55.17 11.47L55.17 11.47L54.52 11.55Q52.53 11.77 52.21 11.77L52.21 11.77L52.06 11.77Q51.56 11.77 51.10 11.58Q50.64 11.38 50.64 11.09Q50.64 10.80 50.89 10.53Q51.13 10.25 51.18 10.10L51.18 10.10Q51.30 9.72 52.08 9.26Q52.86 8.80 53.25 8.77Q53.65 8.75 54.01 8.73Q54.38 8.71 54.83 8.70Q55.29 8.68 55.52 8.66L55.52 8.66L57.06 8.59Q58.50 6.44 59.04 5.83Q59.58 5.21 59.66 5.15Q59.75 5.09 60.00 5.09L60.00 5.09ZM70.73 1.35Q71.56 1.35 72.18 1.84Q72.80 2.32 72.80 3.28Q72.80 4.24 71.74 6.28Q70.68 8.32 69.20 10.45Q67.71 12.58 65.83 14.97L65.83 14.97Q62.86 18.76 60.12 21.79L60.12 21.79Q60.10 21.99 59.98 22.55Q59.85 23.10 59.85 23.67Q59.85 24.23 60.37 24.68Q60.89 25.14 61.66 25.14Q62.43 25.14 63.31 24.59Q64.19 24.04 64.84 23.38L64.84 23.38Q66.55 21.62 66.96 21.62Q67.37 21.62 67.37 22.86L67.37 22.86L67.37 23.21Q67.37 23.87 67.13 24.18L67.13 24.18Q65.69 25.94 63.90 26.80Q62.10 27.67 60.50 27.67Q58.89 27.67 58.05 26.68Q57.22 25.70 57.22 23.99L57.22 23.99Q57.22 20.66 59.00 16.16Q60.79 11.65 63.03 8.49L63.03 8.49Q68.07 1.35 70.73 1.35L70.73 1.35ZM69.97 4.19L69.97 4.19Q69.97 3.93 69.79 3.93L69.79 3.93Q69.20 3.93 66.65 7.35Q64.10 10.76 62.97 12.80Q61.83 14.83 60.82 17.91L60.82 17.91Q62.84 15.52 66.40 10.45Q69.97 5.38 69.97 4.19ZM71.90 16.61L71.18 17.69Q75.21 13.11 78.05 13.11L78.05 13.11Q78.75 13.11 79.20 13.52Q79.66 13.94 79.66 14.61Q79.66 15.28 78.71 16.84Q77.76 18.40 76.96 19.48L76.96 19.48Q76.53 20.03 75.99 20.03Q75.45 20.03 75.15 19.63Q74.85 19.24 74.85 18.71L74.85 18.71Q74.85 17.53 76.12 16.05L76.12 16.05L76.08 16.01Q75.52 16.06 73.29 18.23Q71.06 20.40 69.50 22.12Q67.93 23.84 66.10 26.30L66.10 26.30Q65.57 27.03 65.21 27.03Q64.84 27.03 64.23 26.80Q63.63 26.57 63.50 26.47Q63.37 26.37 63.37 26.13Q63.37 25.89 63.51 25.57Q63.64 25.26 64.01 24.68Q64.38 24.09 65.12 22.80Q65.86 21.50 67.44 18.87Q69.01 16.23 69.32 15.69L69.32 15.69Q69.97 14.56 70.38 14.05L70.38 14.05Q71.15 13.07 72.97 13.07L72.97 13.07Q73.38 13.07 73.38 13.58L73.38 13.58Q73.38 14.39 71.90 16.61L71.90 16.61Z" fill="#000000"></path></g>
            
          </svg>